<svg xmlns="http://www.w3.org/2000/svg" viewBox="0 0 301.24 62.3"><defs><style>.cls-1{fill:#5b5b5f;}.cls-2{fill:#ff7f2f;}.cls-3{fill:#00a8e1;}.cls-4{fill:#7e8aa2;}.cls-4,.cls-5{opacity:0.61;}.cls-5{fill:#adbfd8;}</style></defs><title>logo-tipo</title><g id="Capa_2" data-name="Capa 2"><g id="Ecabezado"><path class="cls-1" d="M44,26.75c3.44,0,6,2.16,6,5.61S47.46,38,44,38H38.81v8.42H37.65V26.75Zm0,10.06c2.78,0,4.81-1.71,4.81-4.46s-2.1-4.44-4.81-4.44H38.82v8.9Z"/><path class="cls-1" d="M66.46,39.38a7.24,7.24,0,1,1-7.24-7.23A7.23,7.23,0,0,1,66.46,39.38ZM59.22,33.3a6.08,6.08,0,1,0,6.07,6.08,6.05,6.05,0,0,0-6.07-6.08Z"/><path class="cls-1" d="M70.93,34.77a7.3,7.3,0,0,1,5.23-2.61,5.63,5.63,0,0,1,3.19,1l-.81.82a4.85,4.85,0,0,0-2.6-.71,6.87,6.87,0,0,0-5,2.67V46.39H69.78v-14h1.14Z"/><path class="cls-1" d="M84.54,28.78v3.59h3.73v1.11H84.53V43.71a1.91,1.91,0,0,0,2,1.84h1.73v1.07H86.54a3,3,0,0,1-3.17-2.91V33.48h-2V32.36h2V28.78Z"/><path class="cls-1" d="M91.48,33.57a8.27,8.27,0,0,1,5.31-1.46c3.72,0,5.78,2.17,5.81,6.07v8.21h-1.08V44.76a7.91,7.91,0,0,1-5.11,1.85c-3.54,0-5.59-1.81-5.59-5,0-2.95,2-4.93,5.9-4.91a9.16,9.16,0,0,1,4.71,1.21c-.09-3.07-1.74-4.67-4.73-4.67A7.32,7.32,0,0,0,92,34.47Zm10,5.41a8.49,8.49,0,0,0-4.71-1.19c-3.24,0-4.74,1.52-4.74,3.82,0,2.46,1.5,3.86,4.51,3.85a8.13,8.13,0,0,0,4.94-1.78Z"/><path class="cls-1" d="M106.47,26.75h1.14V46.39h-1.14Z"/><path class="cls-2" d="M264,45.68a1.52,1.52,0,1,1,.44,1.08A1.46,1.46,0,0,1,264,45.68Z"/><path class="cls-2" d="M277.12,38.47l-.9,1.58a2.79,2.79,0,0,0-2-.7,2.39,2.39,0,0,0-1.9.8,3.24,3.24,0,0,0-.7,2.21q0,2.85,2.71,2.84a3.06,3.06,0,0,0,2.07-.78l.78,1.66a5.36,5.36,0,0,1-1.61.73A7.61,7.61,0,0,1,274,47a4.45,4.45,0,0,1-3.31-1.22,4.6,4.6,0,0,1-1.21-3.39,4.65,4.65,0,0,1,1.33-3.45,4.9,4.9,0,0,1,3.61-1.32A4.4,4.4,0,0,1,277.12,38.47Z"/><path class="cls-2" d="M278.28,42.25a4.78,4.78,0,0,1,1.19-3.37,4.59,4.59,0,0,1,6.35-.05A4.88,4.88,0,0,1,287,42.25a4.91,4.91,0,0,1-1.16,3.44,4.62,4.62,0,0,1-6.38,0A5,5,0,0,1,278.28,42.25Zm2.19,0q0,3,2.15,3a1.85,1.85,0,0,0,1.57-.78,3.65,3.65,0,0,0,.58-2.21q0-2.95-2.14-2.95a1.86,1.86,0,0,0-1.57.78A3.55,3.55,0,0,0,280.48,42.25Z"/><path class="cls-2" d="M299.13,46.79V41.13q0-1.78-1.6-1.78a1.68,1.68,0,0,0-.91.28,1.62,1.62,0,0,0-.62.64v6.53h-2.11v-6a1.39,1.39,0,0,0-.41-1.06,1.63,1.63,0,0,0-1.17-.39,1.65,1.65,0,0,0-.87.3,2,2,0,0,0-.68.65v6.5h-2.11v-9h1.45l.43.79a2.93,2.93,0,0,1,2.27-1,3.53,3.53,0,0,1,2.71,1,2.72,2.72,0,0,1,1.11-.71,4,4,0,0,1,1.42-.27,3.12,3.12,0,0,1,2.35.87,3.27,3.27,0,0,1,.84,2.38v6Z"/><path class="cls-3" d="M113.23,46.5V28h3.28V46.5Z"/><path class="cls-3" d="M128.59,46.5V38.7a3.91,3.91,0,0,0-.66-2.52,2.66,2.66,0,0,0-2.16-.79,3.35,3.35,0,0,0-1.48.39,3.42,3.42,0,0,0-1.23,1V46.5H119.9V33h2.27l.58,1.26a4.7,4.7,0,0,1,3.79-1.51,5,5,0,0,1,3.8,1.44,5.56,5.56,0,0,1,1.39,4V46.5Z"/><path class="cls-3" d="M140.48,46.76h-1.13L133.24,33h3.45l3.23,8.24L143.39,33h3.34Z"/><path class="cls-3" d="M160.28,40.72h-9.64a3.42,3.42,0,0,0,1.11,2.51,4,4,0,0,0,2.75.89A4.44,4.44,0,0,0,157.78,43L159,45.41a7.76,7.76,0,0,1-5,1.35,6.57,6.57,0,0,1-4.88-1.81,6.85,6.85,0,0,1-1.8-5,7,7,0,0,1,2-5.17,6.92,6.92,0,0,1,9.45-.23A6,6,0,0,1,160.55,39,8.8,8.8,0,0,1,160.28,40.72Zm-9.53-2.37h6.63a3,3,0,0,0-3.28-3Q151.41,35.39,150.76,38.35Z"/><path class="cls-3" d="M170.61,35.94a3.31,3.31,0,0,0-1.85-.55,2.51,2.51,0,0,0-1.95,1,3.62,3.62,0,0,0-.85,2.43V46.5h-3.15V33H166v1.24a4.48,4.48,0,0,1,3.52-1.49,5,5,0,0,1,2.47.49Z"/><path class="cls-3" d="M172.75,45.63l1.12-2.51a5,5,0,0,0,3.19,1.12q1.84,0,1.84-1.31a1.61,1.61,0,0,0-.55-1.26,8.48,8.48,0,0,0-2.16-1.16q-3.49-1.45-3.49-4.06A3.19,3.19,0,0,1,174,33.73a5.64,5.64,0,0,1,3.42-1,8.58,8.58,0,0,1,4,.95l-.91,2.44a4.29,4.29,0,0,0-2.87-.88q-1.65,0-1.65,1.31a1.18,1.18,0,0,0,.54.93,11.21,11.21,0,0,0,2.32,1.12,5.94,5.94,0,0,1,2.56,1.7,3.78,3.78,0,0,1,.78,2.41,3.53,3.53,0,0,1-1.39,3A6,6,0,0,1,177,46.76a8.55,8.55,0,0,1-2.16-.22A10.62,10.62,0,0,1,172.75,45.63Z"/><path class="cls-3" d="M185.28,46.5V35.59h-1.73V33h4.92V46.5Zm1.63-18.73a1.83,1.83,0,1,1-1.29.54A1.76,1.76,0,0,1,186.91,27.78Z"/><path class="cls-3" d="M191,39.72a7.14,7.14,0,0,1,1.78-5,6.86,6.86,0,0,1,9.48-.08,7.29,7.29,0,0,1,1.7,5.1,7.33,7.33,0,0,1-1.73,5.13,6.89,6.89,0,0,1-9.53,0A7.41,7.41,0,0,1,191,39.72Zm3.28,0q0,4.46,3.21,4.46A2.76,2.76,0,0,0,199.83,43a5.45,5.45,0,0,0,.86-3.3q0-4.4-3.2-4.4a2.78,2.78,0,0,0-2.34,1.16A5.3,5.3,0,0,0,194.28,39.72Z"/><path class="cls-3" d="M214.91,46.5V38.7a3.91,3.91,0,0,0-.66-2.52,2.66,2.66,0,0,0-2.16-.79,3.35,3.35,0,0,0-1.48.39,3.42,3.42,0,0,0-1.23,1V46.5h-3.15V33h2.27l.58,1.26a4.7,4.7,0,0,1,3.79-1.51,5,5,0,0,1,3.8,1.44,5.56,5.56,0,0,1,1.39,4V46.5Z"/><path class="cls-3" d="M222.05,46.5V35.59h-1.73V33h4.92V46.5Zm1.63-18.73a1.83,1.83,0,1,1-1.29.54A1.76,1.76,0,0,1,223.68,27.78Z"/><path class="cls-3" d="M227.82,45.63l1.12-2.51a5,5,0,0,0,3.19,1.12q1.84,0,1.84-1.31a1.61,1.61,0,0,0-.55-1.26,8.49,8.49,0,0,0-2.16-1.16q-3.49-1.45-3.49-4.06a3.19,3.19,0,0,1,1.34-2.73,5.64,5.64,0,0,1,3.42-1,8.58,8.58,0,0,1,4,.95l-.91,2.44a4.29,4.29,0,0,0-2.87-.88q-1.65,0-1.65,1.31a1.18,1.18,0,0,0,.54.93,11.2,11.2,0,0,0,2.32,1.12,5.94,5.94,0,0,1,2.56,1.7,3.78,3.78,0,0,1,.78,2.41,3.53,3.53,0,0,1-1.39,3,6,6,0,0,1-3.79,1.08,8.54,8.54,0,0,1-2.16-.22A10.62,10.62,0,0,1,227.82,45.63Z"/><path class="cls-3" d="M240,35.54h-1.56V33H240V30.26l3.15-1.16V33h3.71v2.53h-3.71v5.91a3.48,3.48,0,0,0,.45,2,1.88,1.88,0,0,0,1.59.6,3.91,3.91,0,0,0,2.12-.62v2.9a10,10,0,0,1-3.13.38,4.07,4.07,0,0,1-3.1-1.14A4.53,4.53,0,0,1,240,42.37Z"/><path class="cls-3" d="M257,45.16a3,3,0,0,1-1.49,1.15,5.69,5.69,0,0,1-2.22.45,5,5,0,0,1-3.43-1.09,3.89,3.89,0,0,1-1.25-3.09,4.33,4.33,0,0,1,1.76-3.67,8.18,8.18,0,0,1,5-1.32,5.53,5.53,0,0,1,1.31.19q0-2.38-3-2.38a6.67,6.67,0,0,0-3,.59L250,33.54a8.86,8.86,0,0,1,3.87-.78,6.27,6.27,0,0,1,4.52,1.41q1.44,1.4,1.44,5.32v2.89q0,2.7,1.08,3.39a1.7,1.7,0,0,1-.87.84,3.5,3.5,0,0,1-1.1.16,1.75,1.75,0,0,1-1.22-.5A2.57,2.57,0,0,1,257,45.16Zm-.3-5a6.7,6.7,0,0,0-1.21-.16q-3.73,0-3.73,2.45,0,1.81,2.1,1.81a2.51,2.51,0,0,0,2.84-2.84Z"/><polygon class="cls-4" points="13.88 30.47 6.74 27.14 0 30.46 0 46.43 13.88 46.43 13.88 30.47"/><polygon class="cls-4" points="12.29 7.69 12.29 12.92 26.18 6.5 26.18 46.43 28.95 46.43 28.95 0 12.29 7.69"/><polygon class="cls-5" points="6.74 18.49 6.74 24.13 16.66 28.71 16.66 46.43 23.4 46.43 23.4 10.79 6.74 18.49"/><polygon class="cls-3" points="6.74 35.6 0 30.46 0 46.43 6.74 46.43 6.74 35.6"/><path class="cls-1" d="M5,59.18a3.45,3.45,0,0,1-.24,1.35,2.5,2.5,0,0,1-.68.95,2.91,2.91,0,0,1-1,.56,4.62,4.62,0,0,1-1.34.18l-.8,0a4.73,4.73,0,0,1-.79-.12V56.29a4.84,4.84,0,0,1,.79-.12l.8,0a4.62,4.62,0,0,1,1.34.18,2.89,2.89,0,0,1,1,.56,2.51,2.51,0,0,1,.68.95A3.46,3.46,0,0,1,5,59.18Zm-3.24,2.3a2.36,2.36,0,0,0,1.77-.61,2.76,2.76,0,0,0,0-3.4,2.36,2.36,0,0,0-1.77-.61H1.23L1,56.9v4.56l.27,0Z"/><path class="cls-1" d="M9.7,62.17v-6h3.64v.71h-2.8v1.77H13v.7H10.54v2.06h3v.71Z"/><path class="cls-1" d="M19.63,56.15a3.32,3.32,0,0,1,1.93.48A1.63,1.63,0,0,1,22.24,58a1.93,1.93,0,0,1-.18.88,1.51,1.51,0,0,1-.53.59,2.42,2.42,0,0,1-.85.33,5.54,5.54,0,0,1-1.13.1h-.66v2.21h-.83V56.29a4.84,4.84,0,0,1,.79-.12Zm.07.73q-.53,0-.82,0v2.34h.63a4.88,4.88,0,0,0,.77-.06,1.76,1.76,0,0,0,.58-.19.93.93,0,0,0,.37-.37,1.22,1.22,0,0,0,.13-.59,1.09,1.09,0,0,0-.13-.57,1,1,0,0,0-.36-.36,1.55,1.55,0,0,0-.53-.18A3.8,3.8,0,0,0,19.7,56.88Z"/><path class="cls-1" d="M30.27,62.17q-.15-.39-.28-.76l-.27-.76H27l-.54,1.52h-.87l.65-1.75q.3-.8.59-1.53t.57-1.38q.28-.66.59-1.3h.77q.31.64.59,1.3t.57,1.38q.29.72.59,1.53l.64,1.75ZM29.49,60q-.28-.75-.55-1.45t-.56-1.35q-.3.64-.57,1.35T27.27,60Z"/><path class="cls-1" d="M38.35,59.67l.35.45q.21.28.43.62t.44.71a7.45,7.45,0,0,1,.37.71H39q-.17-.33-.37-.66t-.41-.64c-.14-.2-.27-.39-.41-.57l-.37-.46H36.27v2.33h-.83V56.29a4.84,4.84,0,0,1,.79-.12l.8,0a3.25,3.25,0,0,1,1.91.47A1.62,1.62,0,0,1,39.59,58a1.65,1.65,0,0,1-.31,1A1.84,1.84,0,0,1,38.35,59.67Zm-1.26-2.79q-.53,0-.82,0v2.25h.59a6.36,6.36,0,0,0,.77,0,1.75,1.75,0,0,0,.58-.16.88.88,0,0,0,.37-.34,1.13,1.13,0,0,0,.13-.58,1.09,1.09,0,0,0-.13-.56,1,1,0,0,0-.35-.35,1.52,1.52,0,0,0-.52-.18A3.7,3.7,0,0,0,37.08,56.88Z"/><path class="cls-1" d="M48.26,56.21v.72H46.39v5.24h-.83V56.93H43.68v-.72Z"/><path class="cls-1" d="M56,62.17q-.15-.39-.28-.76l-.27-.76h-2.7l-.54,1.52h-.87L52,60.42q.3-.8.59-1.53t.57-1.38q.28-.66.59-1.3h.77q.31.64.59,1.3t.57,1.38q.29.72.59,1.53l.64,1.75ZM55.23,60q-.28-.75-.55-1.45t-.56-1.35q-.3.64-.57,1.35T53,60Z"/><path class="cls-1" d="M63.85,61.34l-.23-.53-.31-.69L63,59.37l-.35-.74L62.31,58l-.23-.42q-.1,1-.16,2.2t-.1,2.39H61q0-.77.08-1.56c0-.53.06-1,.1-1.55s.08-1,.12-1.48.09-.94.14-1.37h.73q.23.38.5.89t.53,1.08q.27.56.52,1.13l.46,1,.46-1q.25-.56.52-1.13t.53-1.08q.27-.52.5-.89h.73q.29,2.88.44,6h-.82q0-1.2-.1-2.39t-.16-2.2l-.23.42-.31.62-.35.74-.35.76-.31.69-.23.53Z"/><path class="cls-1" d="M72.1,62.17v-6h3.64v.71h-2.8v1.77h2.49v.7H72.94v2.06h3v.71Z"/><path class="cls-1" d="M84.54,62.17l-.43-.71-.53-.82L83,59.77l-.61-.85-.58-.77q-.28-.36-.52-.64v4.65h-.82v-6h.66q.4.43.86,1t.91,1.18q.45.6.85,1.19t.67,1V56.21h.82v6Z"/><path class="cls-1" d="M94.14,56.21v.72H92.26v5.24h-.83V56.93H89.55v-.72Z"/><path class="cls-1" d="M98,59.18a3.71,3.71,0,0,1,.23-1.35,2.79,2.79,0,0,1,.62-1,2.56,2.56,0,0,1,.91-.59,3.08,3.08,0,0,1,1.1-.2,3,3,0,0,1,1.09.2,2.54,2.54,0,0,1,.9.59,2.81,2.81,0,0,1,.61,1,4.1,4.1,0,0,1,0,2.7,2.82,2.82,0,0,1-.61,1,2.53,2.53,0,0,1-.9.59,3,3,0,0,1-1.09.2,3.08,3.08,0,0,1-1.1-.2,2.55,2.55,0,0,1-.91-.59,2.8,2.8,0,0,1-.62-1A3.71,3.71,0,0,1,98,59.18Zm.88,0a3.31,3.31,0,0,0,.14,1,2.19,2.19,0,0,0,.39.75,1.72,1.72,0,0,0,.62.48,2,2,0,0,0,.82.17,1.92,1.92,0,0,0,.82-.17,1.73,1.73,0,0,0,.62-.48,2.21,2.21,0,0,0,.39-.75,3.59,3.59,0,0,0,0-2,2.22,2.22,0,0,0-.39-.75,1.72,1.72,0,0,0-.62-.48,1.91,1.91,0,0,0-.82-.17A1.94,1.94,0,0,0,100,57a1.71,1.71,0,0,0-.62.48,2.2,2.2,0,0,0-.39.75A3.3,3.3,0,0,0,98.86,59.18Z"/><path class="cls-1" d="M109.65,61.57q1.31,0,1.31-.89a.9.9,0,0,0-.12-.47,1.12,1.12,0,0,0-.31-.34,2.2,2.2,0,0,0-.45-.25l-.54-.21a5.36,5.36,0,0,1-.62-.25,2.17,2.17,0,0,1-.51-.33,1.43,1.43,0,0,1-.34-.46,1.51,1.51,0,0,1-.12-.64,1.49,1.49,0,0,1,.53-1.22,2.25,2.25,0,0,1,1.47-.44,3.9,3.9,0,0,1,1,.12,2.25,2.25,0,0,1,.65.25l-.27.68a2.36,2.36,0,0,0-.54-.22,2.9,2.9,0,0,0-.83-.11,1.85,1.85,0,0,0-.45.05,1.15,1.15,0,0,0-.36.15.76.76,0,0,0-.25.26.74.74,0,0,0-.09.37.79.79,0,0,0,.09.4.94.94,0,0,0,.27.29,2.24,2.24,0,0,0,.4.23l.5.21q.39.15.71.31a2.33,2.33,0,0,1,.56.37,1.49,1.49,0,0,1,.37.51,1.8,1.8,0,0,1,.13.72,1.41,1.41,0,0,1-.57,1.2,2.68,2.68,0,0,1-1.61.42,4.18,4.18,0,0,1-.65,0,5,5,0,0,1-.53-.11,3.05,3.05,0,0,1-.4-.14l-.26-.12.25-.69a3.7,3.7,0,0,0,.6.25A3.09,3.09,0,0,0,109.65,61.57Z"/><path class="cls-1" d="M126.6,59.18a3.45,3.45,0,0,1-.24,1.35,2.5,2.5,0,0,1-.68.95,2.91,2.91,0,0,1-1,.56,4.62,4.62,0,0,1-1.34.18l-.8,0a4.73,4.73,0,0,1-.79-.12V56.29a4.84,4.84,0,0,1,.79-.12l.8,0a4.62,4.62,0,0,1,1.34.18,2.89,2.89,0,0,1,1,.56,2.51,2.51,0,0,1,.68.95A3.46,3.46,0,0,1,126.6,59.18Zm-3.24,2.3a2.31,2.31,0,1,0,0-4.61h-.55l-.27,0v4.56l.27,0Z"/><path class="cls-1" d="M131.28,62.17v-6h3.64v.71h-2.8v1.77h2.49v.7h-2.49v2.06h3v.71Z"/><path class="cls-1" d="M145.06,56.21h.83v6h-.83Z"/><path class="cls-1" d="M154.89,62.17l-.43-.71-.53-.82-.59-.86-.61-.85-.58-.77q-.28-.36-.52-.64v4.65h-.82v-6h.66q.4.43.86,1t.91,1.18q.45.6.85,1.19t.67,1V56.21h.82v6Z"/><path class="cls-1" d="M165.33,56.21q-.33.95-.62,1.75t-.58,1.53q-.28.72-.56,1.38t-.57,1.3h-.78q-.29-.64-.57-1.3t-.57-1.38q-.29-.72-.59-1.53t-.62-1.75h.92q.46,1.36.91,2.61t.92,2.36q.47-1.09.92-2.35t.9-2.62Z"/><path class="cls-1" d="M169.59,62.17v-6h3.64v.71h-2.8v1.77h2.49v.7h-2.49v2.06h3v.71Z"/><path class="cls-1" d="M180.86,59.67l.35.45q.21.28.43.62t.44.71a7.45,7.45,0,0,1,.37.71h-.91q-.17-.33-.37-.66t-.41-.64c-.14-.2-.27-.39-.41-.57l-.37-.46h-1.21v2.33h-.83V56.29a4.84,4.84,0,0,1,.79-.12l.8,0a3.25,3.25,0,0,1,1.91.47A1.62,1.62,0,0,1,182.1,58a1.65,1.65,0,0,1-.31,1A1.84,1.84,0,0,1,180.86,59.67Zm-1.26-2.79q-.53,0-.82,0v2.25h.59a6.36,6.36,0,0,0,.77,0,1.75,1.75,0,0,0,.58-.16.88.88,0,0,0,.37-.34,1.13,1.13,0,0,0,.13-.58,1.09,1.09,0,0,0-.13-.56,1,1,0,0,0-.35-.35,1.52,1.52,0,0,0-.52-.18A3.7,3.7,0,0,0,179.59,56.88Z"/><path class="cls-1" d="M188.18,61.57q1.31,0,1.31-.89a.9.9,0,0,0-.12-.47,1.12,1.12,0,0,0-.31-.34,2.2,2.2,0,0,0-.45-.25l-.54-.21a5.36,5.36,0,0,1-.62-.25,2.17,2.17,0,0,1-.51-.33,1.43,1.43,0,0,1-.34-.46,1.51,1.51,0,0,1-.12-.64,1.49,1.49,0,0,1,.53-1.22,2.25,2.25,0,0,1,1.47-.44,3.9,3.9,0,0,1,1,.12,2.25,2.25,0,0,1,.65.25l-.27.68a2.36,2.36,0,0,0-.54-.22,2.9,2.9,0,0,0-.83-.11,1.85,1.85,0,0,0-.45.05,1.15,1.15,0,0,0-.36.15.76.76,0,0,0-.25.26.74.74,0,0,0-.09.37.79.79,0,0,0,.09.4.94.94,0,0,0,.27.29,2.24,2.24,0,0,0,.4.23l.5.21q.39.15.71.31a2.33,2.33,0,0,1,.56.37,1.49,1.49,0,0,1,.37.51,1.8,1.8,0,0,1,.13.72,1.41,1.41,0,0,1-.57,1.2,2.68,2.68,0,0,1-1.61.42,4.18,4.18,0,0,1-.65,0,5,5,0,0,1-.53-.11,3.05,3.05,0,0,1-.4-.14l-.26-.12.25-.69a3.7,3.7,0,0,0,.6.25A3.09,3.09,0,0,0,188.18,61.57Z"/><path class="cls-1" d="M194.81,56.21h.83v6h-.83Z"/><path class="cls-1" d="M200.32,59.18a3.71,3.71,0,0,1,.23-1.35,2.79,2.79,0,0,1,.62-1,2.56,2.56,0,0,1,.91-.59,3.08,3.08,0,0,1,1.1-.2,3,3,0,0,1,1.09.2,2.54,2.54,0,0,1,.9.59,2.81,2.81,0,0,1,.61,1,4.1,4.1,0,0,1,0,2.7,2.82,2.82,0,0,1-.61,1,2.53,2.53,0,0,1-.9.59,3,3,0,0,1-1.09.2,3.08,3.08,0,0,1-1.1-.2,2.55,2.55,0,0,1-.91-.59,2.8,2.8,0,0,1-.62-1A3.71,3.71,0,0,1,200.32,59.18Zm.88,0a3.31,3.31,0,0,0,.14,1,2.19,2.19,0,0,0,.39.75,1.72,1.72,0,0,0,.62.48,2,2,0,0,0,.82.17,1.92,1.92,0,0,0,.82-.17,1.73,1.73,0,0,0,.62-.48,2.21,2.21,0,0,0,.39-.75,3.59,3.59,0,0,0,0-2,2.22,2.22,0,0,0-.39-.75A1.72,1.72,0,0,0,204,57a1.91,1.91,0,0,0-.82-.17,1.94,1.94,0,0,0-.82.17,1.71,1.71,0,0,0-.62.48,2.2,2.2,0,0,0-.39.75A3.3,3.3,0,0,0,201.2,59.18Zm3-4.52L203,55.84l-.4-.36,1.1-1.33Z"/><path class="cls-1" d="M214.78,62.17l-.43-.71-.53-.82-.59-.86-.61-.85-.58-.77q-.28-.36-.52-.64v4.65h-.82v-6h.66q.4.43.86,1t.91,1.18q.45.6.85,1.19t.67,1V56.21h.82v6Z"/><path class="cls-1" d="M225.82,62.17v-6h3.64v.71h-2.8v1.77h2.49v.7h-2.49v2.06h3v.71Z"/><path class="cls-1" d="M238.25,62.17l-.43-.71-.53-.82-.59-.86-.61-.85-.58-.77q-.28-.36-.52-.64v4.65h-.82v-6h.66q.4.43.86,1t.91,1.18q.45.6.85,1.19t.67,1V56.21H239v6Z"/><path class="cls-1" d="M251.52,62.3a2.62,2.62,0,0,1-1-.18,1.9,1.9,0,0,1-.71-.49,2,2,0,0,1-.41-.74,3.12,3.12,0,0,1-.13-.93V56.21h.83v3.65a1.81,1.81,0,0,0,.4,1.3,1.38,1.38,0,0,0,1,.4,1.62,1.62,0,0,0,.58-.1,1.15,1.15,0,0,0,.45-.3,1.42,1.42,0,0,0,.29-.53,2.55,2.55,0,0,0,.1-.77V56.21h.83v3.74a3.12,3.12,0,0,1-.13.93,2,2,0,0,1-.41.74,1.94,1.94,0,0,1-.71.49A2.58,2.58,0,0,1,251.52,62.3Z"/><path class="cls-1" d="M262.74,62.17l-.43-.71-.53-.82-.59-.86-.61-.85-.58-.77q-.28-.36-.52-.64v4.65h-.82v-6h.66q.4.43.86,1t.91,1.18q.45.6.85,1.19t.67,1V56.21h.82v6Z"/><path class="cls-1" d="M276.34,62.3a3.06,3.06,0,0,1-1.14-.21,2.44,2.44,0,0,1-.89-.6,2.72,2.72,0,0,1-.57-1,4,4,0,0,1-.2-1.33,3.62,3.62,0,0,1,.23-1.33,2.88,2.88,0,0,1,.62-1,2.6,2.6,0,0,1,.9-.6,2.94,2.94,0,0,1,1.1-.21,3.93,3.93,0,0,1,.67.05,4,4,0,0,1,.52.12,2.49,2.49,0,0,1,.36.14l.19.1-.24.69-.22-.11-.33-.12-.4-.1a2.58,2.58,0,0,0-.44,0,2.14,2.14,0,0,0-.85.16,1.77,1.77,0,0,0-.65.47,2.15,2.15,0,0,0-.41.75,3.24,3.24,0,0,0-.14,1,3.51,3.51,0,0,0,.13,1,2.11,2.11,0,0,0,.37.75,1.68,1.68,0,0,0,.62.49,2.06,2.06,0,0,0,.87.17,3.17,3.17,0,0,0,1-.12,4.15,4.15,0,0,0,.57-.21l.21.69-.21.11-.39.12a4.75,4.75,0,0,1-.54.1A5,5,0,0,1,276.34,62.3Z"/><path class="cls-1" d="M286.14,61.45v.72h-3.59v-6h.83v5.24Z"/><path class="cls-1" d="M290.46,56.21h.83v6h-.83Z"/><path class="cls-1" d="M298.77,62.3a3.06,3.06,0,0,1-1.14-.21,2.44,2.44,0,0,1-.89-.6,2.72,2.72,0,0,1-.57-1,4,4,0,0,1-.2-1.33,3.62,3.62,0,0,1,.23-1.33,2.88,2.88,0,0,1,.62-1,2.6,2.6,0,0,1,.9-.6,2.94,2.94,0,0,1,1.1-.21,3.93,3.93,0,0,1,.67.05,4,4,0,0,1,.52.12,2.49,2.49,0,0,1,.36.14l.19.1-.24.69-.22-.11-.33-.12-.4-.1a2.58,2.58,0,0,0-.44,0A2.14,2.14,0,0,0,298,57a1.77,1.77,0,0,0-.65.47,2.15,2.15,0,0,0-.41.75,3.24,3.24,0,0,0-.14,1,3.51,3.51,0,0,0,.13,1,2.11,2.11,0,0,0,.37.75,1.68,1.68,0,0,0,.62.49,2.06,2.06,0,0,0,.87.17,3.17,3.17,0,0,0,1-.12,4.15,4.15,0,0,0,.57-.21l.21.69-.21.11-.39.12a4.75,4.75,0,0,1-.54.1A5,5,0,0,1,298.77,62.3Z"/></g></g></svg>